<?xml version="1.0" encoding="UTF-8" ?>
<svg version="1.1" width="320" height="320" xmlns="http://www.w3.org/2000/svg" shape-rendering="crispEdges">
<rect x="84" y="8" width="16" height="4" fill="#43331A" />
<rect x="220" y="8" width="16" height="4" fill="#43331A" />
<rect x="84" y="12" width="4" height="8" fill="#43331A" />
<rect x="88" y="12" width="8" height="12" fill="#D7FFDC" />
<rect x="96" y="12" width="16" height="4" fill="#43331A" />
<rect x="208" y="12" width="4" height="4" fill="#685028" />
<rect x="212" y="12" width="12" height="4" fill="#43331A" />
<rect x="224" y="12" width="8" height="20" fill="#D7FFDC" />
<rect x="232" y="12" width="4" height="16" fill="#43331A" />
<rect x="80" y="16" width="4" height="48" fill="#43331A" />
<rect x="96" y="16" width="8" height="8" fill="#D7FFDC" />
<rect x="104" y="16" width="4" height="4" fill="#685028" />
<rect x="108" y="16" width="8" height="4" fill="#43331A" />
<rect x="204" y="16" width="8" height="4" fill="#43331A" />
<rect x="212" y="16" width="4" height="4" fill="#5F8761" />
<rect x="216" y="16" width="8" height="8" fill="#D7FFDC" />
<rect x="236" y="16" width="4" height="44" fill="#43331A" />
<rect x="84" y="20" width="4" height="8" fill="#685028" />
<rect x="104" y="20" width="8" height="8" fill="#D7FFDC" />
<rect x="112" y="20" width="4" height="4" fill="#685028" />
<rect x="116" y="20" width="8" height="4" fill="#43331A" />
<rect x="196" y="20" width="12" height="4" fill="#43331A" />
<rect x="208" y="20" width="8" height="8" fill="#D7FFDC" />
<rect x="88" y="24" width="4" height="76" fill="#D7FFDC" />
<rect x="92" y="24" width="12" height="24" fill="#5F8761" />
<rect x="112" y="24" width="8" height="12" fill="#D7FFDC" />
<rect x="120" y="24" width="8" height="4" fill="#43331A" />
<rect x="148" y="24" width="20" height="8" fill="#43331A" />
<rect x="192" y="24" width="4" height="4" fill="#685028" />
<rect x="196" y="24" width="4" height="4" fill="#43331A" />
<rect x="200" y="24" width="8" height="8" fill="#D7FFDC" />
<rect x="216" y="24" width="8" height="36" fill="#5F8761" />
<rect x="84" y="28" width="4" height="28" fill="#D7FFDC" />
<rect x="104" y="28" width="4" height="20" fill="#5F8761" />
<rect x="108" y="28" width="4" height="4" fill="#D7FFDC" />
<rect x="120" y="28" width="4" height="72" fill="#D7FFDC" />
<rect x="124" y="28" width="24" height="4" fill="#43331A" />
<rect x="168" y="28" width="28" height="4" fill="#43331A" />
<rect x="196" y="28" width="4" height="72" fill="#D7FFDC" />
<rect x="208" y="28" width="4" height="4" fill="#D7FFDC" />
<rect x="212" y="28" width="4" height="28" fill="#5F8761" />
<rect x="232" y="28" width="4" height="24" fill="#D7FFDC" />
<rect x="108" y="32" width="4" height="16" fill="#5F8761" />
<rect x="124" y="32" width="4" height="68" fill="#D7FFDC" />
<rect x="128" y="32" width="8" height="4" fill="#43331A" />
<rect x="136" y="32" width="8" height="32" fill="#5F8761" />
<rect x="144" y="32" width="8" height="96" fill="#D7FFDC" />
<rect x="152" y="32" width="16" height="28" fill="#5F8761" />
<rect x="168" y="32" width="8" height="96" fill="#D7FFDC" />
<rect x="176" y="32" width="4" height="32" fill="#5F8761" />
<rect x="180" y="32" width="4" height="4" fill="#685028" />
<rect x="184" y="32" width="8" height="4" fill="#43331A" />
<rect x="192" y="32" width="4" height="68" fill="#D7FFDC" />
<rect x="200" y="32" width="4" height="8" fill="#D7FFDC" />
<rect x="204" y="32" width="8" height="12" fill="#5F8761" />
<rect x="224" y="32" width="4" height="4" fill="#5F8761" />
<rect x="228" y="32" width="4" height="68" fill="#D7FFDC" />
<rect x="112" y="36" width="4" height="8" fill="#5F8761" />
<rect x="116" y="36" width="4" height="64" fill="#D7FFDC" />
<rect x="128" y="36" width="4" height="64" fill="#D7FFDC" />
<rect x="132" y="36" width="4" height="24" fill="#5F8761" />
<rect x="180" y="36" width="8" height="24" fill="#5F8761" />
<rect x="188" y="36" width="4" height="64" fill="#D7FFDC" />
<rect x="224" y="36" width="4" height="64" fill="#D7FFDC" />
<rect x="200" y="40" width="4" height="4" fill="#5F8761" />
<rect x="112" y="44" width="4" height="56" fill="#D7FFDC" />
<rect x="200" y="44" width="8" height="56" fill="#D7FFDC" />
<rect x="208" y="44" width="4" height="4" fill="#5F8761" />
<rect x="92" y="48" width="4" height="52" fill="#D7FFDC" />
<rect x="96" y="48" width="8" height="12" fill="#5F8761" />
<rect x="104" y="48" width="8" height="4" fill="#D7FFDC" />
<rect x="208" y="48" width="4" height="92" fill="#D7FFDC" />
<rect x="104" y="52" width="4" height="4" fill="#5F8761" />
<rect x="108" y="52" width="4" height="88" fill="#D7FFDC" />
<rect x="232" y="52" width="4" height="4" fill="#685028" />
<rect x="84" y="56" width="4" height="20" fill="#43331A" />
<rect x="104" y="56" width="4" height="72" fill="#D7FFDC" />
<rect x="212" y="56" width="4" height="72" fill="#D7FFDC" />
<rect x="232" y="56" width="4" height="20" fill="#43331A" />
<rect x="96" y="60" width="8" height="40" fill="#D7FFDC" />
<rect x="132" y="60" width="4" height="40" fill="#D7FFDC" />
<rect x="152" y="60" width="12" height="4" fill="#5F8761" />
<rect x="164" y="60" width="4" height="60" fill="#D7FFDC" />
<rect x="180" y="60" width="4" height="4" fill="#5F8761" />
<rect x="184" y="60" width="4" height="40" fill="#D7FFDC" />
<rect x="216" y="60" width="8" height="40" fill="#D7FFDC" />
<rect x="136" y="64" width="8" height="36" fill="#D7FFDC" />
<rect x="152" y="64" width="4" height="56" fill="#D7FFDC" />
<rect x="156" y="64" width="8" height="16" fill="#5F8761" />
<rect x="176" y="64" width="8" height="36" fill="#D7FFDC" />
<rect x="80" y="68" width="4" height="4" fill="#685028" />
<rect x="236" y="68" width="4" height="24" fill="#43331A" />
<rect x="80" y="72" width="4" height="16" fill="#43331A" />
<rect x="84" y="76" width="4" height="24" fill="#D7FFDC" />
<rect x="232" y="76" width="4" height="4" fill="#5F8761" />
<rect x="76" y="80" width="4" height="40" fill="#43331A" />
<rect x="156" y="80" width="8" height="36" fill="#D7FFDC" />
<rect x="232" y="80" width="4" height="20" fill="#D7FFDC" />
<rect x="240" y="80" width="4" height="40" fill="#43331A" />
<rect x="80" y="88" width="4" height="4" fill="#685028" />
<rect x="80" y="92" width="4" height="16" fill="#5F8761" />
<rect x="236" y="92" width="4" height="12" fill="#5F8761" />
<rect x="84" y="100" width="16" height="8" fill="#5F8761" />
<rect x="100" y="100" width="4" height="28" fill="#D7FFDC" />
<rect x="112" y="100" width="28" height="4" fill="#43331A" />
<rect x="140" y="100" width="4" height="8" fill="#5F8761" />
<rect x="176" y="100" width="32" height="4" fill="#43331A" />
<rect x="216" y="100" width="4" height="28" fill="#D7FFDC" />
<rect x="220" y="100" width="16" height="8" fill="#5F8761" />
<rect x="112" y="104" width="4" height="8" fill="#43331A" />
<rect x="116" y="104" width="8" height="4" fill="#D7FFDC" />
<rect x="124" y="104" width="16" height="12" fill="#43331A" />
<rect x="176" y="104" width="4" height="8" fill="#43331A" />
<rect x="180" y="104" width="4" height="8" fill="#685028" />
<rect x="184" y="104" width="4" height="8" fill="#D7FFDC" />
<rect x="188" y="104" width="20" height="8" fill="#43331A" />
<rect x="236" y="104" width="4" height="24" fill="#43331A" />
<rect x="80" y="108" width="4" height="20" fill="#43331A" />
<rect x="84" y="108" width="12" height="4" fill="#5F8761" />
<rect x="96" y="108" width="4" height="8" fill="#D7FFDC" />
<rect x="116" y="108" width="4" height="4" fill="#D7FFDC" />
<rect x="120" y="108" width="4" height="12" fill="#43331A" />
<rect x="140" y="108" width="4" height="24" fill="#D7FFDC" />
<rect x="220" y="108" width="4" height="8" fill="#D7FFDC" />
<rect x="224" y="108" width="12" height="4" fill="#5F8761" />
<rect x="84" y="112" width="12" height="4" fill="#D7FFDC" />
<rect x="112" y="112" width="4" height="28" fill="#D7FFDC" />
<rect x="116" y="112" width="4" height="4" fill="#43331A" />
<rect x="176" y="112" width="4" height="20" fill="#D7FFDC" />
<rect x="180" y="112" width="24" height="4" fill="#43331A" />
<rect x="204" y="112" width="4" height="28" fill="#D7FFDC" />
<rect x="224" y="112" width="12" height="4" fill="#D7FFDC" />
<rect x="60" y="116" width="4" height="8" fill="#5F8761" />
<rect x="64" y="116" width="12" height="4" fill="#43331A" />
<rect x="84" y="116" width="12" height="4" fill="#43331A" />
<rect x="96" y="116" width="4" height="4" fill="#685028" />
<rect x="116" y="116" width="4" height="28" fill="#D7FFDC" />
<rect x="124" y="116" width="8" height="4" fill="#43331A" />
<rect x="132" y="116" width="4" height="4" fill="#5F8761" />
<rect x="136" y="116" width="4" height="32" fill="#D7FFDC" />
<rect x="156" y="116" width="8" height="4" fill="#43331A" />
<rect x="180" y="116" width="4" height="16" fill="#D7FFDC" />
<rect x="184" y="116" width="4" height="4" fill="#5F8761" />
<rect x="188" y="116" width="12" height="4" fill="#43331A" />
<rect x="200" y="116" width="4" height="28" fill="#D7FFDC" />
<rect x="220" y="116" width="16" height="4" fill="#43331A" />
<rect x="244" y="116" width="16" height="4" fill="#43331A" />
<rect x="84" y="120" width="4" height="16" fill="#43331A" />
<rect x="88" y="120" width="12" height="4" fill="#D7FFDC" />
<rect x="120" y="120" width="16" height="24" fill="#D7FFDC" />
<rect x="152" y="120" width="4" height="4" fill="#685028" />
<rect x="156" y="120" width="4" height="4" fill="#D7FFDC" />
<rect x="160" y="120" width="4" height="4" fill="#685028" />
<rect x="164" y="120" width="4" height="16" fill="#43331A" />
<rect x="184" y="120" width="16" height="24" fill="#D7FFDC" />
<rect x="220" y="120" width="12" height="4" fill="#D7FFDC" />
<rect x="232" y="120" width="4" height="16" fill="#43331A" />
<rect x="260" y="120" width="4" height="4" fill="#43331A" />
<rect x="88" y="124" width="4" height="12" fill="#43331A" />
<rect x="92" y="124" width="8" height="4" fill="#D7FFDC" />
<rect x="152" y="124" width="12" height="12" fill="#43331A" />
<rect x="220" y="124" width="8" height="4" fill="#D7FFDC" />
<rect x="228" y="124" width="4" height="12" fill="#43331A" />
<rect x="92" y="128" width="12" height="4" fill="#43331A" />
<rect x="104" y="128" width="4" height="12" fill="#5F8761" />
<rect x="144" y="128" width="8" height="8" fill="#43331A" />
<rect x="168" y="128" width="8" height="8" fill="#43331A" />
<rect x="212" y="128" width="4" height="4" fill="#685028" />
<rect x="216" y="128" width="12" height="4" fill="#43331A" />
<rect x="92" y="132" width="4" height="4" fill="#685028" />
<rect x="96" y="132" width="8" height="4" fill="#5F8761" />
<rect x="140" y="132" width="4" height="4" fill="#43331A" />
<rect x="176" y="132" width="8" height="4" fill="#43331A" />
<rect x="212" y="132" width="8" height="4" fill="#5F8761" />
<rect x="220" y="132" width="4" height="4" fill="#685028" />
<rect x="224" y="132" width="4" height="8" fill="#43331A" />
<rect x="236" y="132" width="4" height="4" fill="#43331A" />
<rect x="76" y="136" width="8" height="4" fill="#43331A" />
<rect x="92" y="136" width="12" height="4" fill="#43331A" />
<rect x="140" y="136" width="4" height="4" fill="#685028" />
<rect x="144" y="136" width="4" height="4" fill="#43331A" />
<rect x="148" y="136" width="24" height="4" fill="#5F8761" />
<rect x="172" y="136" width="4" height="4" fill="#685028" />
<rect x="176" y="136" width="4" height="4" fill="#43331A" />
<rect x="180" y="136" width="4" height="12" fill="#D7FFDC" />
<rect x="212" y="136" width="4" height="4" fill="#5F8761" />
<rect x="216" y="136" width="4" height="4" fill="#685028" />
<rect x="220" y="136" width="4" height="8" fill="#43331A" />
<rect x="240" y="136" width="8" height="4" fill="#43331A" />
<rect x="68" y="140" width="8" height="4" fill="#43331A" />
<rect x="96" y="140" width="20" height="4" fill="#43331A" />
<rect x="140" y="140" width="4" height="8" fill="#D7FFDC" />
<rect x="144" y="140" width="4" height="4" fill="#685028" />
<rect x="148" y="140" width="4" height="4" fill="#43331A" />
<rect x="152" y="140" width="16" height="4" fill="#5F8761" />
<rect x="168" y="140" width="8" height="4" fill="#43331A" />
<rect x="176" y="140" width="4" height="8" fill="#D7FFDC" />
<rect x="204" y="140" width="4" height="4" fill="#685028" />
<rect x="208" y="140" width="12" height="4" fill="#43331A" />
<rect x="248" y="140" width="4" height="4" fill="#43331A" />
<rect x="64" y="144" width="8" height="4" fill="#43331A" />
<rect x="104" y="144" width="24" height="4" fill="#43331A" />
<rect x="128" y="144" width="4" height="4" fill="#5F8761" />
<rect x="132" y="144" width="4" height="4" fill="#D7FFDC" />
<rect x="144" y="144" width="4" height="4" fill="#D7FFDC" />
<rect x="148" y="144" width="4" height="4" fill="#685028" />
<rect x="152" y="144" width="8" height="8" fill="#43331A" />
<rect x="160" y="144" width="4" height="4" fill="#685028" />
<rect x="164" y="144" width="8" height="8" fill="#43331A" />
<rect x="172" y="144" width="4" height="4" fill="#D7FFDC" />
<rect x="184" y="144" width="8" height="4" fill="#D7FFDC" />
<rect x="192" y="144" width="24" height="4" fill="#43331A" />
<rect x="252" y="144" width="4" height="4" fill="#43331A" />
<rect x="104" y="148" width="4" height="8" fill="#43331A" />
<rect x="108" y="148" width="4" height="28" fill="#5F8761" />
<rect x="112" y="148" width="12" height="12" fill="#D7FFDC" />
<rect x="124" y="148" width="4" height="4" fill="#5F8761" />
<rect x="128" y="148" width="12" height="4" fill="#43331A" />
<rect x="140" y="148" width="8" height="4" fill="#685028" />
<rect x="148" y="148" width="4" height="4" fill="#43331A" />
<rect x="160" y="148" width="4" height="4" fill="#43331A" />
<rect x="172" y="148" width="8" height="4" fill="#685028" />
<rect x="180" y="148" width="16" height="4" fill="#43331A" />
<rect x="196" y="148" width="4" height="4" fill="#5F8761" />
<rect x="200" y="148" width="8" height="12" fill="#D7FFDC" />
<rect x="208" y="148" width="4" height="32" fill="#5F8761" />
<rect x="212" y="148" width="4" height="8" fill="#43331A" />
<rect x="124" y="152" width="8" height="8" fill="#D7FFDC" />
<rect x="132" y="152" width="16" height="28" fill="#43331A" />
<rect x="148" y="152" width="24" height="4" fill="#5F8761" />
<rect x="172" y="152" width="16" height="28" fill="#43331A" />
<rect x="188" y="152" width="12" height="20" fill="#D7FFDC" />
<rect x="216" y="152" width="4" height="4" fill="#685028" />
<rect x="100" y="156" width="4" height="20" fill="#43331A" />
<rect x="104" y="156" width="4" height="16" fill="#5F8761" />
<rect x="148" y="156" width="4" height="20" fill="#43331A" />
<rect x="152" y="156" width="4" height="4" fill="#D7FFDC" />
<rect x="156" y="156" width="8" height="20" fill="#43331A" />
<rect x="164" y="156" width="4" height="4" fill="#D7FFDC" />
<rect x="168" y="156" width="4" height="20" fill="#43331A" />
<rect x="212" y="156" width="4" height="16" fill="#5F8761" />
<rect x="216" y="156" width="8" height="4" fill="#43331A" />
<rect x="112" y="160" width="4" height="20" fill="#5F8761" />
<rect x="116" y="160" width="12" height="8" fill="#D7FFDC" />
<rect x="128" y="160" width="4" height="8" fill="#5F8761" />
<rect x="152" y="160" width="4" height="16" fill="#43331A" />
<rect x="164" y="160" width="4" height="12" fill="#43331A" />
<rect x="200" y="160" width="4" height="8" fill="#D7FFDC" />
<rect x="204" y="160" width="4" height="20" fill="#5F8761" />
<rect x="216" y="160" width="4" height="4" fill="#685028" />
<rect x="220" y="160" width="4" height="8" fill="#43331A" />
<rect x="96" y="164" width="4" height="20" fill="#43331A" />
<rect x="216" y="164" width="4" height="8" fill="#D7FFDC" />
<rect x="224" y="164" width="4" height="16" fill="#43331A" />
<rect x="116" y="168" width="4" height="16" fill="#5F8761" />
<rect x="120" y="168" width="12" height="4" fill="#D7FFDC" />
<rect x="200" y="168" width="4" height="16" fill="#5F8761" />
<rect x="220" y="168" width="4" height="4" fill="#685028" />
<rect x="104" y="172" width="4" height="24" fill="#D7FFDC" />
<rect x="120" y="172" width="4" height="12" fill="#5F8761" />
<rect x="124" y="172" width="8" height="4" fill="#D7FFDC" />
<rect x="164" y="172" width="4" height="80" fill="#D7FFDC" />
<rect x="188" y="172" width="8" height="4" fill="#D7FFDC" />
<rect x="196" y="172" width="4" height="12" fill="#5F8761" />
<rect x="212" y="172" width="4" height="24" fill="#D7FFDC" />
<rect x="216" y="172" width="8" height="8" fill="#5F8761" />
<rect x="100" y="176" width="4" height="12" fill="#D7FFDC" />
<rect x="108" y="176" width="4" height="24" fill="#D7FFDC" />
<rect x="124" y="176" width="4" height="8" fill="#5F8761" />
<rect x="128" y="176" width="4" height="52" fill="#D7FFDC" />
<rect x="148" y="176" width="16" height="36" fill="#D7FFDC" />
<rect x="168" y="176" width="4" height="36" fill="#D7FFDC" />
<rect x="188" y="176" width="4" height="52" fill="#D7FFDC" />
<rect x="192" y="176" width="4" height="8" fill="#5F8761" />
<rect x="228" y="176" width="4" height="12" fill="#43331A" />
<rect x="92" y="180" width="4" height="20" fill="#43331A" />
<rect x="112" y="180" width="4" height="24" fill="#D7FFDC" />
<rect x="132" y="180" width="4" height="48" fill="#D7FFDC" />
<rect x="136" y="180" width="4" height="4" fill="#43331A" />
<rect x="140" y="180" width="8" height="88" fill="#D7FFDC" />
<rect x="172" y="180" width="16" height="36" fill="#D7FFDC" />
<rect x="204" y="180" width="8" height="20" fill="#D7FFDC" />
<rect x="216" y="180" width="4" height="12" fill="#D7FFDC" />
<rect x="220" y="180" width="4" height="4" fill="#5F8761" />
<rect x="224" y="180" width="4" height="24" fill="#D7FFDC" />
<rect x="96" y="184" width="4" height="20" fill="#5F8761" />
<rect x="116" y="184" width="12" height="20" fill="#D7FFDC" />
<rect x="136" y="184" width="4" height="44" fill="#D7FFDC" />
<rect x="192" y="184" width="12" height="20" fill="#D7FFDC" />
<rect x="220" y="184" width="4" height="8" fill="#D7FFDC" />
<rect x="232" y="184" width="4" height="48" fill="#43331A" />
<rect x="100" y="188" width="4" height="8" fill="#5F8761" />
<rect x="228" y="188" width="4" height="24" fill="#5F8761" />
<rect x="88" y="192" width="4" height="28" fill="#43331A" />
<rect x="216" y="192" width="4" height="4" fill="#685028" />
<rect x="220" y="192" width="4" height="4" fill="#5F8761" />
<rect x="236" y="192" width="4" height="40" fill="#43331A" />
<rect x="100" y="196" width="4" height="8" fill="#43331A" />
<rect x="104" y="196" width="4" height="4" fill="#5F8761" />
<rect x="212" y="196" width="4" height="12" fill="#5F8761" />
<rect x="216" y="196" width="4" height="16" fill="#43331A" />
<rect x="220" y="196" width="4" height="8" fill="#685028" />
<rect x="92" y="200" width="4" height="8" fill="#685028" />
<rect x="104" y="200" width="4" height="4" fill="#685028" />
<rect x="108" y="200" width="4" height="12" fill="#5F8761" />
<rect x="204" y="200" width="4" height="4" fill="#D7FFDC" />
<rect x="208" y="200" width="4" height="16" fill="#5F8761" />
<rect x="96" y="204" width="4" height="12" fill="#D7FFDC" />
<rect x="100" y="204" width="4" height="4" fill="#5F8761" />
<rect x="104" y="204" width="4" height="16" fill="#43331A" />
<rect x="112" y="204" width="8" height="12" fill="#5F8761" />
<rect x="120" y="204" width="8" height="4" fill="#D7FFDC" />
<rect x="192" y="204" width="8" height="4" fill="#D7FFDC" />
<rect x="200" y="204" width="8" height="12" fill="#5F8761" />
<rect x="220" y="204" width="4" height="20" fill="#D7FFDC" />
<rect x="224" y="204" width="4" height="12" fill="#5F8761" />
<rect x="92" y="208" width="4" height="4" fill="#5F8761" />
<rect x="100" y="208" width="4" height="12" fill="#D7FFDC" />
<rect x="120" y="208" width="4" height="8" fill="#5F8761" />
<rect x="124" y="208" width="4" height="4" fill="#D7FFDC" />
<rect x="192" y="208" width="4" height="4" fill="#D7FFDC" />
<rect x="196" y="208" width="4" height="8" fill="#5F8761" />
<rect x="212" y="208" width="4" height="4" fill="#685028" />
<rect x="92" y="212" width="4" height="20" fill="#43331A" />
<rect x="108" y="212" width="4" height="16" fill="#43331A" />
<rect x="124" y="212" width="4" height="4" fill="#5F8761" />
<rect x="148" y="212" width="4" height="4" fill="#5F8761" />
<rect x="152" y="212" width="12" height="20" fill="#D7FFDC" />
<rect x="168" y="212" width="4" height="4" fill="#5F8761" />
<rect x="192" y="212" width="4" height="4" fill="#5F8761" />
<rect x="212" y="212" width="4" height="8" fill="#43331A" />
<rect x="216" y="212" width="4" height="4" fill="#685028" />
<rect x="228" y="212" width="4" height="8" fill="#D7FFDC" />
<rect x="96" y="216" width="4" height="12" fill="#5F8761" />
<rect x="112" y="216" width="16" height="8" fill="#D7FFDC" />
<rect x="148" y="216" width="4" height="20" fill="#43331A" />
<rect x="168" y="216" width="4" height="40" fill="#43331A" />
<rect x="172" y="216" width="4" height="4" fill="#5F8761" />
<rect x="176" y="216" width="12" height="12" fill="#D7FFDC" />
<rect x="192" y="216" width="20" height="4" fill="#D7FFDC" />
<rect x="216" y="216" width="4" height="12" fill="#D7FFDC" />
<rect x="224" y="216" width="4" height="8" fill="#D7FFDC" />
<rect x="100" y="220" width="4" height="12" fill="#5F8761" />
<rect x="104" y="220" width="4" height="4" fill="#D7FFDC" />
<rect x="172" y="220" width="4" height="4" fill="#D7FFDC" />
<rect x="192" y="220" width="16" height="4" fill="#D7FFDC" />
<rect x="208" y="220" width="4" height="4" fill="#5F8761" />
<rect x="212" y="220" width="4" height="4" fill="#685028" />
<rect x="228" y="220" width="4" height="4" fill="#5F8761" />
<rect x="104" y="224" width="4" height="8" fill="#5F8761" />
<rect x="112" y="224" width="4" height="20" fill="#43331A" />
<rect x="116" y="224" width="8" height="12" fill="#5F8761" />
<rect x="124" y="224" width="4" height="4" fill="#D7FFDC" />
<rect x="172" y="224" width="4" height="4" fill="#5F8761" />
<rect x="192" y="224" width="8" height="4" fill="#D7FFDC" />
<rect x="200" y="224" width="8" height="4" fill="#5F8761" />
<rect x="208" y="224" width="4" height="16" fill="#43331A" />
<rect x="212" y="224" width="4" height="4" fill="#5F8761" />
<rect x="220" y="224" width="8" height="8" fill="#5F8761" />
<rect x="228" y="224" width="4" height="12" fill="#43331A" />
<rect x="96" y="228" width="4" height="8" fill="#43331A" />
<rect x="108" y="228" width="4" height="20" fill="#D7FFDC" />
<rect x="124" y="228" width="16" height="4" fill="#5F8761" />
<rect x="172" y="228" width="12" height="36" fill="#D7FFDC" />
<rect x="184" y="228" width="20" height="8" fill="#5F8761" />
<rect x="204" y="228" width="4" height="12" fill="#685028" />
<rect x="212" y="228" width="4" height="28" fill="#D7FFDC" />
<rect x="216" y="228" width="4" height="4" fill="#5F8761" />
<rect x="240" y="228" width="8" height="4" fill="#43331A" />
<rect x="100" y="232" width="4" height="28" fill="#43331A" />
<rect x="104" y="232" width="4" height="4" fill="#D7FFDC" />
<rect x="124" y="232" width="12" height="4" fill="#5F8761" />
<rect x="136" y="232" width="4" height="44" fill="#D7FFDC" />
<rect x="152" y="232" width="4" height="12" fill="#5F8761" />
<rect x="156" y="232" width="8" height="20" fill="#D7FFDC" />
<rect x="216" y="232" width="4" height="16" fill="#D7FFDC" />
<rect x="220" y="232" width="4" height="4" fill="#5F8761" />
<rect x="224" y="232" width="4" height="24" fill="#43331A" />
<rect x="232" y="232" width="8" height="8" fill="#5F8761" />
<rect x="240" y="232" width="4" height="8" fill="#D7FFDC" />
<rect x="244" y="232" width="4" height="4" fill="#5F8761" />
<rect x="248" y="232" width="8" height="4" fill="#43331A" />
<rect x="104" y="236" width="4" height="8" fill="#43331A" />
<rect x="116" y="236" width="4" height="36" fill="#43331A" />
<rect x="120" y="236" width="16" height="16" fill="#D7FFDC" />
<rect x="148" y="236" width="4" height="4" fill="#685028" />
<rect x="184" y="236" width="20" height="8" fill="#D7FFDC" />
<rect x="220" y="236" width="4" height="4" fill="#43331A" />
<rect x="228" y="236" width="4" height="8" fill="#5F8761" />
<rect x="244" y="236" width="4" height="4" fill="#D7FFDC" />
<rect x="248" y="236" width="4" height="16" fill="#5F8761" />
<rect x="252" y="236" width="4" height="4" fill="#685028" />
<rect x="256" y="236" width="8" height="4" fill="#43331A" />
<rect x="148" y="240" width="4" height="8" fill="#43331A" />
<rect x="204" y="240" width="4" height="24" fill="#43331A" />
<rect x="208" y="240" width="4" height="16" fill="#D7FFDC" />
<rect x="220" y="240" width="4" height="4" fill="#685028" />
<rect x="232" y="240" width="4" height="4" fill="#5F8761" />
<rect x="236" y="240" width="4" height="4" fill="#D7FFDC" />
<rect x="240" y="240" width="8" height="12" fill="#5F8761" />
<rect x="252" y="240" width="4" height="8" fill="#5F8761" />
<rect x="256" y="240" width="8" height="4" fill="#685028" />
<rect x="264" y="240" width="4" height="8" fill="#43331A" />
<rect x="96" y="244" width="4" height="12" fill="#43331A" />
<rect x="104" y="244" width="4" height="8" fill="#D7FFDC" />
<rect x="112" y="244" width="4" height="12" fill="#D7FFDC" />
<rect x="152" y="244" width="4" height="32" fill="#43331A" />
<rect x="184" y="244" width="16" height="24" fill="#D7FFDC" />
<rect x="200" y="244" width="4" height="4" fill="#5F8761" />
<rect x="220" y="244" width="4" height="12" fill="#D7FFDC" />
<rect x="228" y="244" width="8" height="8" fill="#43331A" />
<rect x="236" y="244" width="4" height="4" fill="#5F8761" />
<rect x="256" y="244" width="8" height="12" fill="#D7FFDC" />
<rect x="268" y="244" width="4" height="16" fill="#43331A" />
<rect x="108" y="248" width="4" height="8" fill="#5F8761" />
<rect x="148" y="248" width="4" height="4" fill="#685028" />
<rect x="200" y="248" width="4" height="28" fill="#43331A" />
<rect x="216" y="248" width="4" height="8" fill="#5F8761" />
<rect x="236" y="248" width="4" height="8" fill="#43331A" />
<rect x="252" y="248" width="4" height="12" fill="#D7FFDC" />
<rect x="264" y="248" width="4" height="8" fill="#D7FFDC" />
<rect x="104" y="252" width="4" height="4" fill="#685028" />
<rect x="120" y="252" width="4" height="16" fill="#5F8761" />
<rect x="124" y="252" width="12" height="12" fill="#D7FFDC" />
<rect x="148" y="252" width="4" height="4" fill="#5F8761" />
<rect x="156" y="252" width="4" height="4" fill="#5F8761" />
<rect x="160" y="252" width="4" height="4" fill="#D7FFDC" />
<rect x="164" y="252" width="4" height="4" fill="#685028" />
<rect x="240" y="252" width="4" height="4" fill="#685028" />
<rect x="244" y="252" width="4" height="4" fill="#5F8761" />
<rect x="248" y="252" width="4" height="8" fill="#D7FFDC" />
<rect x="272" y="252" width="4" height="28" fill="#43331A" />
<rect x="104" y="256" width="12" height="4" fill="#43331A" />
<rect x="148" y="256" width="4" height="12" fill="#D7FFDC" />
<rect x="156" y="256" width="12" height="4" fill="#43331A" />
<rect x="168" y="256" width="4" height="12" fill="#5F8761" />
<rect x="208" y="256" width="16" height="4" fill="#43331A" />
<rect x="244" y="256" width="4" height="4" fill="#43331A" />
<rect x="256" y="256" width="4" height="4" fill="#D7FFDC" />
<rect x="260" y="256" width="8" height="16" fill="#5F8761" />
<rect x="108" y="260" width="8" height="4" fill="#43331A" />
<rect x="164" y="260" width="4" height="16" fill="#43331A" />
<rect x="208" y="260" width="12" height="4" fill="#43331A" />
<rect x="240" y="260" width="4" height="16" fill="#43331A" />
<rect x="244" y="260" width="4" height="8" fill="#685028" />
<rect x="248" y="260" width="12" height="8" fill="#5F8761" />
<rect x="268" y="260" width="4" height="12" fill="#5F8761" />
<rect x="124" y="264" width="4" height="8" fill="#D7FFDC" />
<rect x="128" y="264" width="4" height="8" fill="#5F8761" />
<rect x="132" y="264" width="4" height="8" fill="#D7FFDC" />
<rect x="172" y="264" width="4" height="8" fill="#D7FFDC" />
<rect x="176" y="264" width="4" height="12" fill="#5F8761" />
<rect x="180" y="264" width="4" height="12" fill="#D7FFDC" />
<rect x="120" y="268" width="4" height="8" fill="#43331A" />
<rect x="140" y="268" width="12" height="4" fill="#5F8761" />
<rect x="168" y="268" width="4" height="12" fill="#43331A" />
<rect x="184" y="268" width="4" height="8" fill="#D7FFDC" />
<rect x="188" y="268" width="4" height="8" fill="#5F8761" />
<rect x="192" y="268" width="4" height="4" fill="#D7FFDC" />
<rect x="196" y="268" width="4" height="4" fill="#5F8761" />
<rect x="244" y="268" width="4" height="4" fill="#43331A" />
<rect x="248" y="268" width="4" height="16" fill="#D7FFDC" />
<rect x="252" y="268" width="8" height="4" fill="#5F8761" />
<rect x="124" y="272" width="8" height="8" fill="#43331A" />
<rect x="132" y="272" width="4" height="4" fill="#5F8761" />
<rect x="140" y="272" width="8" height="4" fill="#5F8761" />
<rect x="148" y="272" width="4" height="8" fill="#43331A" />
<rect x="172" y="272" width="4" height="4" fill="#5F8761" />
<rect x="192" y="272" width="4" height="4" fill="#5F8761" />
<rect x="196" y="272" width="4" height="8" fill="#43331A" />
<rect x="236" y="272" width="4" height="8" fill="#43331A" />
<rect x="244" y="272" width="4" height="8" fill="#D7FFDC" />
<rect x="252" y="272" width="12" height="16" fill="#D7FFDC" />
<rect x="264" y="272" width="4" height="4" fill="#5F8761" />
<rect x="268" y="272" width="4" height="8" fill="#43331A" />
<rect x="132" y="276" width="16" height="4" fill="#43331A" />
<rect x="172" y="276" width="24" height="4" fill="#43331A" />
<rect x="232" y="276" width="4" height="8" fill="#43331A" />
<rect x="240" y="276" width="4" height="28" fill="#5F8761" />
<rect x="264" y="276" width="4" height="8" fill="#D7FFDC" />
<rect x="228" y="280" width="4" height="8" fill="#43331A" />
<rect x="236" y="280" width="4" height="24" fill="#5F8761" />
<rect x="244" y="280" width="4" height="20" fill="#5F8761" />
<rect x="268" y="280" width="4" height="4" fill="#685028" />
<rect x="224" y="284" width="4" height="4" fill="#685028" />
<rect x="232" y="284" width="4" height="16" fill="#5F8761" />
<rect x="248" y="284" width="4" height="16" fill="#5F8761" />
<rect x="264" y="284" width="8" height="4" fill="#43331A" />
<rect x="224" y="288" width="4" height="16" fill="#43331A" />
<rect x="228" y="288" width="4" height="12" fill="#5F8761" />
<rect x="252" y="288" width="4" height="8" fill="#5F8761" />
<rect x="256" y="288" width="4" height="4" fill="#D7FFDC" />
<rect x="260" y="288" width="8" height="4" fill="#43331A" />
<rect x="256" y="292" width="8" height="4" fill="#43331A" />
<rect x="252" y="296" width="8" height="4" fill="#43331A" />
<rect x="228" y="300" width="8" height="8" fill="#43331A" />
<rect x="244" y="300" width="12" height="4" fill="#43331A" />
<rect x="236" y="304" width="12" height="4" fill="#43331A" />
</svg>