<?xml version="1.0" encoding="UTF-8" ?>
<svg version="1.1" width="800" height="800" xmlns="http://www.w3.org/2000/svg" shape-rendering="crispEdges">
<rect x="0" y="0" width="800" height="20" fill="#000000" opacity="0.000000" />
<rect x="0" y="20" width="210" height="20" fill="#000000" opacity="0.000000" />
<rect x="210" y="20" width="40" height="10" fill="#43331A" />
<rect x="250" y="20" width="300" height="10" fill="#000000" opacity="0.000000" />
<rect x="550" y="20" width="40" height="10" fill="#43331A" />
<rect x="590" y="20" width="210" height="20" fill="#000000" opacity="0.000000" />
<rect x="210" y="30" width="10" height="20" fill="#43331A" />
<rect x="220" y="30" width="20" height="30" fill="#D7FFDC" />
<rect x="240" y="30" width="30" height="10" fill="#43331A" />
<rect x="270" y="30" width="10" height="10" fill="#685028" />
<rect x="280" y="30" width="240" height="10" fill="#000000" opacity="0.000000" />
<rect x="520" y="30" width="40" height="10" fill="#43331A" />
<rect x="560" y="30" width="10" height="50" fill="#D7FFDC" />
<rect x="570" y="30" width="10" height="10" fill="#5F8761" />
<rect x="580" y="30" width="10" height="30" fill="#43331A" />
<rect x="0" y="40" width="200" height="160" fill="#000000" opacity="0.000000" />
<rect x="200" y="40" width="10" height="130" fill="#43331A" />
<rect x="240" y="40" width="20" height="20" fill="#D7FFDC" />
<rect x="260" y="40" width="10" height="10" fill="#685028" />
<rect x="270" y="40" width="20" height="10" fill="#43331A" />
<rect x="290" y="40" width="210" height="10" fill="#000000" opacity="0.000000" />
<rect x="500" y="40" width="10" height="10" fill="#685028" />
<rect x="510" y="40" width="20" height="10" fill="#43331A" />
<rect x="530" y="40" width="10" height="10" fill="#5F8761" />
<rect x="540" y="40" width="20" height="20" fill="#D7FFDC" />
<rect x="570" y="40" width="10" height="210" fill="#D7FFDC" />
<rect x="590" y="40" width="10" height="120" fill="#43331A" />
<rect x="600" y="40" width="200" height="160" fill="#000000" opacity="0.000000" />
<rect x="210" y="50" width="10" height="10" fill="#685028" />
<rect x="260" y="50" width="20" height="20" fill="#D7FFDC" />
<rect x="280" y="50" width="30" height="10" fill="#43331A" />
<rect x="310" y="50" width="180" height="10" fill="#000000" opacity="0.000000" />
<rect x="490" y="50" width="30" height="10" fill="#43331A" />
<rect x="520" y="50" width="20" height="20" fill="#D7FFDC" />
<rect x="210" y="60" width="10" height="10" fill="#5F8761" />
<rect x="220" y="60" width="10" height="190" fill="#D7FFDC" />
<rect x="230" y="60" width="30" height="60" fill="#5F8761" />
<rect x="280" y="60" width="20" height="30" fill="#D7FFDC" />
<rect x="300" y="60" width="20" height="10" fill="#43331A" />
<rect x="320" y="60" width="40" height="10" fill="#000000" opacity="0.000000" />
<rect x="360" y="60" width="10" height="10" fill="#5F8761" />
<rect x="370" y="60" width="10" height="10" fill="#000000" opacity="0.000000" />
<rect x="380" y="60" width="10" height="20" fill="#43331A" />
<rect x="390" y="60" width="10" height="10" fill="#685028" />
<rect x="400" y="60" width="10" height="20" fill="#43331A" />
<rect x="410" y="60" width="10" height="10" fill="#685028" />
<rect x="420" y="60" width="60" height="10" fill="#000000" opacity="0.000000" />
<rect x="480" y="60" width="20" height="10" fill="#43331A" />
<rect x="500" y="60" width="20" height="20" fill="#D7FFDC" />
<rect x="540" y="60" width="20" height="90" fill="#5F8761" />
<rect x="580" y="60" width="10" height="10" fill="#685028" />
<rect x="210" y="70" width="10" height="70" fill="#D7FFDC" />
<rect x="260" y="70" width="10" height="50" fill="#5F8761" />
<rect x="270" y="70" width="10" height="10" fill="#D7FFDC" />
<rect x="300" y="70" width="10" height="180" fill="#D7FFDC" />
<rect x="310" y="70" width="70" height="10" fill="#43331A" />
<rect x="390" y="70" width="10" height="10" fill="#43331A" />
<rect x="410" y="70" width="80" height="10" fill="#43331A" />
<rect x="490" y="70" width="10" height="180" fill="#D7FFDC" />
<rect x="520" y="70" width="10" height="10" fill="#D7FFDC" />
<rect x="530" y="70" width="10" height="70" fill="#5F8761" />
<rect x="580" y="70" width="10" height="60" fill="#D7FFDC" />
<rect x="270" y="80" width="10" height="40" fill="#5F8761" />
<rect x="310" y="80" width="10" height="170" fill="#D7FFDC" />
<rect x="320" y="80" width="20" height="10" fill="#43331A" />
<rect x="340" y="80" width="20" height="80" fill="#5F8761" />
<rect x="360" y="80" width="20" height="250" fill="#D7FFDC" />
<rect x="380" y="80" width="40" height="70" fill="#5F8761" />
<rect x="420" y="80" width="20" height="250" fill="#D7FFDC" />
<rect x="440" y="80" width="10" height="80" fill="#5F8761" />
<rect x="450" y="80" width="10" height="10" fill="#685028" />
<rect x="460" y="80" width="10" height="10" fill="#43331A" />
<rect x="470" y="80" width="10" height="10" fill="#685028" />
<rect x="480" y="80" width="10" height="170" fill="#D7FFDC" />
<rect x="500" y="80" width="10" height="20" fill="#D7FFDC" />
<rect x="510" y="80" width="20" height="30" fill="#5F8761" />
<rect x="560" y="80" width="10" height="10" fill="#5F8761" />
<rect x="280" y="90" width="10" height="20" fill="#5F8761" />
<rect x="290" y="90" width="10" height="160" fill="#D7FFDC" />
<rect x="320" y="90" width="10" height="160" fill="#D7FFDC" />
<rect x="330" y="90" width="10" height="60" fill="#5F8761" />
<rect x="450" y="90" width="20" height="60" fill="#5F8761" />
<rect x="470" y="90" width="10" height="160" fill="#D7FFDC" />
<rect x="560" y="90" width="10" height="160" fill="#D7FFDC" />
<rect x="500" y="100" width="10" height="10" fill="#5F8761" />
<rect x="280" y="110" width="10" height="140" fill="#D7FFDC" />
<rect x="500" y="110" width="20" height="140" fill="#D7FFDC" />
<rect x="520" y="110" width="10" height="10" fill="#5F8761" />
<rect x="230" y="120" width="10" height="130" fill="#D7FFDC" />
<rect x="240" y="120" width="20" height="30" fill="#5F8761" />
<rect x="260" y="120" width="20" height="10" fill="#D7FFDC" />
<rect x="520" y="120" width="10" height="230" fill="#D7FFDC" />
<rect x="260" y="130" width="10" height="10" fill="#5F8761" />
<rect x="270" y="130" width="10" height="220" fill="#D7FFDC" />
<rect x="580" y="130" width="10" height="10" fill="#5F8761" />
<rect x="210" y="140" width="10" height="10" fill="#5F8761" />
<rect x="260" y="140" width="10" height="180" fill="#D7FFDC" />
<rect x="530" y="140" width="10" height="180" fill="#D7FFDC" />
<rect x="580" y="140" width="10" height="40" fill="#43331A" />
<rect x="210" y="150" width="10" height="10" fill="#685028" />
<rect x="240" y="150" width="20" height="100" fill="#D7FFDC" />
<rect x="330" y="150" width="10" height="100" fill="#D7FFDC" />
<rect x="380" y="150" width="30" height="10" fill="#5F8761" />
<rect x="410" y="150" width="10" height="150" fill="#D7FFDC" />
<rect x="450" y="150" width="10" height="10" fill="#5F8761" />
<rect x="460" y="150" width="10" height="100" fill="#D7FFDC" />
<rect x="540" y="150" width="20" height="100" fill="#D7FFDC" />
<rect x="210" y="160" width="10" height="30" fill="#43331A" />
<rect x="340" y="160" width="20" height="90" fill="#D7FFDC" />
<rect x="380" y="160" width="10" height="140" fill="#D7FFDC" />
<rect x="390" y="160" width="20" height="40" fill="#5F8761" />
<rect x="440" y="160" width="20" height="90" fill="#D7FFDC" />
<rect x="590" y="160" width="10" height="20" fill="#000000" opacity="0.000000" />
<rect x="200" y="170" width="10" height="10" fill="#000000" opacity="0.000000" />
<rect x="200" y="180" width="10" height="40" fill="#43331A" />
<rect x="580" y="180" width="10" height="10" fill="#685028" />
<rect x="590" y="180" width="10" height="50" fill="#43331A" />
<rect x="210" y="190" width="10" height="60" fill="#D7FFDC" />
<rect x="580" y="190" width="10" height="10" fill="#5F8761" />
<rect x="0" y="200" width="190" height="90" fill="#000000" opacity="0.000000" />
<rect x="190" y="200" width="10" height="100" fill="#43331A" />
<rect x="390" y="200" width="20" height="90" fill="#D7FFDC" />
<rect x="580" y="200" width="10" height="50" fill="#D7FFDC" />
<rect x="600" y="200" width="10" height="80" fill="#43331A" />
<rect x="610" y="200" width="190" height="90" fill="#000000" opacity="0.000000" />
<rect x="200" y="220" width="10" height="10" fill="#685028" />
<rect x="200" y="230" width="10" height="40" fill="#5F8761" />
<rect x="590" y="230" width="10" height="30" fill="#5F8761" />
<rect x="210" y="250" width="40" height="20" fill="#5F8761" />
<rect x="250" y="250" width="10" height="70" fill="#D7FFDC" />
<rect x="280" y="250" width="70" height="10" fill="#43331A" />
<rect x="350" y="250" width="10" height="20" fill="#5F8761" />
<rect x="440" y="250" width="80" height="10" fill="#43331A" />
<rect x="540" y="250" width="10" height="70" fill="#D7FFDC" />
<rect x="550" y="250" width="40" height="20" fill="#5F8761" />
<rect x="280" y="260" width="10" height="20" fill="#43331A" />
<rect x="290" y="260" width="20" height="10" fill="#D7FFDC" />
<rect x="310" y="260" width="40" height="30" fill="#43331A" />
<rect x="440" y="260" width="10" height="20" fill="#43331A" />
<rect x="450" y="260" width="10" height="20" fill="#685028" />
<rect x="460" y="260" width="10" height="20" fill="#D7FFDC" />
<rect x="470" y="260" width="50" height="20" fill="#43331A" />
<rect x="590" y="260" width="10" height="50" fill="#43331A" />
<rect x="200" y="270" width="10" height="40" fill="#43331A" />
<rect x="210" y="270" width="30" height="10" fill="#5F8761" />
<rect x="240" y="270" width="10" height="20" fill="#D7FFDC" />
<rect x="290" y="270" width="10" height="10" fill="#D7FFDC" />
<rect x="300" y="270" width="10" height="30" fill="#43331A" />
<rect x="350" y="270" width="10" height="100" fill="#D7FFDC" />
<rect x="550" y="270" width="10" height="20" fill="#D7FFDC" />
<rect x="560" y="270" width="30" height="10" fill="#5F8761" />
<rect x="210" y="280" width="30" height="10" fill="#D7FFDC" />
<rect x="280" y="280" width="10" height="70" fill="#D7FFDC" />
<rect x="290" y="280" width="10" height="10" fill="#43331A" />
<rect x="440" y="280" width="10" height="90" fill="#D7FFDC" />
<rect x="450" y="280" width="60" height="10" fill="#43331A" />
<rect x="510" y="280" width="10" height="70" fill="#D7FFDC" />
<rect x="560" y="280" width="30" height="10" fill="#D7FFDC" />
<rect x="600" y="280" width="10" height="60" fill="#000000" opacity="0.000000" />
<rect x="0" y="290" width="150" height="510" fill="#000000" opacity="0.000000" />
<rect x="150" y="290" width="40" height="10" fill="#43331A" />
<rect x="210" y="290" width="30" height="10" fill="#43331A" />
<rect x="240" y="290" width="10" height="10" fill="#685028" />
<rect x="290" y="290" width="10" height="70" fill="#D7FFDC" />
<rect x="310" y="290" width="20" height="10" fill="#43331A" />
<rect x="330" y="290" width="10" height="10" fill="#5F8761" />
<rect x="340" y="290" width="10" height="80" fill="#D7FFDC" />
<rect x="390" y="290" width="20" height="10" fill="#5F8761" />
<rect x="450" y="290" width="10" height="80" fill="#D7FFDC" />
<rect x="460" y="290" width="10" height="10" fill="#5F8761" />
<rect x="470" y="290" width="30" height="10" fill="#43331A" />
<rect x="500" y="290" width="10" height="70" fill="#D7FFDC" />
<rect x="550" y="290" width="10" height="10" fill="#685028" />
<rect x="560" y="290" width="30" height="10" fill="#43331A" />
<rect x="610" y="290" width="40" height="10" fill="#43331A" />
<rect x="650" y="290" width="150" height="10" fill="#000000" opacity="0.000000" />
<rect x="150" y="300" width="10" height="10" fill="#5F8761" />
<rect x="160" y="300" width="40" height="40" fill="#000000" opacity="0.000000" />
<rect x="210" y="300" width="10" height="20" fill="#43331A" />
<rect x="220" y="300" width="30" height="10" fill="#D7FFDC" />
<rect x="300" y="300" width="40" height="60" fill="#D7FFDC" />
<rect x="380" y="300" width="10" height="10" fill="#43331A" />
<rect x="390" y="300" width="30" height="10" fill="#685028" />
<rect x="460" y="300" width="40" height="60" fill="#D7FFDC" />
<rect x="550" y="300" width="30" height="10" fill="#D7FFDC" />
<rect x="580" y="300" width="10" height="20" fill="#43331A" />
<rect x="610" y="300" width="40" height="40" fill="#000000" opacity="0.000000" />
<rect x="650" y="300" width="10" height="10" fill="#685028" />
<rect x="660" y="300" width="140" height="300" fill="#000000" opacity="0.000000" />
<rect x="150" y="310" width="10" height="490" fill="#000000" opacity="0.000000" />
<rect x="200" y="310" width="10" height="490" fill="#000000" opacity="0.000000" />
<rect x="220" y="310" width="10" height="10" fill="#685028" />
<rect x="230" y="310" width="20" height="10" fill="#D7FFDC" />
<rect x="380" y="310" width="10" height="10" fill="#D7FFDC" />
<rect x="390" y="310" width="20" height="10" fill="#685028" />
<rect x="410" y="310" width="10" height="20" fill="#D7FFDC" />
<rect x="550" y="310" width="20" height="10" fill="#D7FFDC" />
<rect x="570" y="310" width="10" height="20" fill="#43331A" />
<rect x="590" y="310" width="10" height="20" fill="#000000" opacity="0.000000" />
<rect x="650" y="310" width="10" height="280" fill="#000000" opacity="0.000000" />
<rect x="210" y="320" width="10" height="10" fill="#000000" opacity="0.000000" />
<rect x="220" y="320" width="40" height="10" fill="#43331A" />
<rect x="260" y="320" width="10" height="30" fill="#5F8761" />
<rect x="380" y="320" width="10" height="10" fill="#5F8761" />
<rect x="390" y="320" width="10" height="10" fill="#43331A" />
<rect x="400" y="320" width="10" height="10" fill="#685028" />
<rect x="530" y="320" width="10" height="30" fill="#5F8761" />
<rect x="540" y="320" width="30" height="10" fill="#43331A" />
<rect x="580" y="320" width="10" height="10" fill="#000000" opacity="0.000000" />
<rect x="210" y="330" width="30" height="10" fill="#43331A" />
<rect x="240" y="330" width="20" height="10" fill="#5F8761" />
<rect x="360" y="330" width="10" height="40" fill="#D7FFDC" />
<rect x="370" y="330" width="10" height="10" fill="#5F8761" />
<rect x="380" y="330" width="10" height="10" fill="#43331A" />
<rect x="390" y="330" width="10" height="40" fill="#D7FFDC" />
<rect x="400" y="330" width="10" height="10" fill="#5F8761" />
<rect x="410" y="330" width="10" height="10" fill="#43331A" />
<rect x="420" y="330" width="10" height="10" fill="#5F8761" />
<rect x="430" y="330" width="10" height="40" fill="#D7FFDC" />
<rect x="540" y="330" width="10" height="10" fill="#5F8761" />
<rect x="550" y="330" width="10" height="10" fill="#685028" />
<rect x="560" y="330" width="10" height="10" fill="#43331A" />
<rect x="570" y="330" width="10" height="10" fill="#685028" />
<rect x="580" y="330" width="20" height="10" fill="#43331A" />
<rect x="160" y="340" width="30" height="10" fill="#000000" opacity="0.000000" />
<rect x="190" y="340" width="10" height="10" fill="#43331A" />
<rect x="210" y="340" width="20" height="140" fill="#000000" opacity="0.000000" />
<rect x="230" y="340" width="10" height="10" fill="#685028" />
<rect x="240" y="340" width="20" height="10" fill="#43331A" />
<rect x="370" y="340" width="20" height="30" fill="#D7FFDC" />
<rect x="400" y="340" width="30" height="30" fill="#D7FFDC" />
<rect x="540" y="340" width="20" height="10" fill="#43331A" />
<rect x="560" y="340" width="10" height="10" fill="#685028" />
<rect x="570" y="340" width="30" height="90" fill="#000000" opacity="0.000000" />
<rect x="600" y="340" width="10" height="10" fill="#43331A" />
<rect x="610" y="340" width="10" height="10" fill="#685028" />
<rect x="620" y="340" width="30" height="10" fill="#000000" opacity="0.000000" />
<rect x="160" y="350" width="10" height="10" fill="#000000" opacity="0.000000" />
<rect x="170" y="350" width="10" height="10" fill="#43331A" />
<rect x="180" y="350" width="10" height="10" fill="#685028" />
<rect x="190" y="350" width="10" height="450" fill="#000000" opacity="0.000000" />
<rect x="230" y="350" width="20" height="60" fill="#000000" opacity="0.000000" />
<rect x="250" y="350" width="40" height="10" fill="#43331A" />
<rect x="510" y="350" width="10" height="10" fill="#685028" />
<rect x="520" y="350" width="30" height="10" fill="#43331A" />
<rect x="550" y="350" width="20" height="40" fill="#000000" opacity="0.000000" />
<rect x="600" y="350" width="20" height="220" fill="#000000" opacity="0.000000" />
<rect x="620" y="350" width="20" height="10" fill="#685028" />
<rect x="640" y="350" width="10" height="230" fill="#000000" opacity="0.000000" />
<rect x="160" y="360" width="10" height="10" fill="#43331A" />
<rect x="170" y="360" width="10" height="10" fill="#5F8761" />
<rect x="180" y="360" width="10" height="440" fill="#000000" opacity="0.000000" />
<rect x="250" y="360" width="10" height="10" fill="#000000" opacity="0.000000" />
<rect x="260" y="360" width="60" height="10" fill="#43331A" />
<rect x="320" y="360" width="10" height="10" fill="#5F8761" />
<rect x="330" y="360" width="10" height="10" fill="#D7FFDC" />
<rect x="460" y="360" width="20" height="10" fill="#D7FFDC" />
<rect x="480" y="360" width="40" height="10" fill="#43331A" />
<rect x="520" y="360" width="10" height="10" fill="#685028" />
<rect x="530" y="360" width="10" height="20" fill="#43331A" />
<rect x="540" y="360" width="10" height="10" fill="#000000" opacity="0.000000" />
<rect x="620" y="360" width="10" height="210" fill="#000000" opacity="0.000000" />
<rect x="630" y="360" width="10" height="10" fill="#685028" />
<rect x="160" y="370" width="20" height="430" fill="#000000" opacity="0.000000" />
<rect x="250" y="370" width="10" height="10" fill="#685028" />
<rect x="260" y="370" width="10" height="20" fill="#43331A" />
<rect x="270" y="370" width="10" height="70" fill="#5F8761" />
<rect x="280" y="370" width="30" height="30" fill="#D7FFDC" />
<rect x="310" y="370" width="10" height="10" fill="#5F8761" />
<rect x="320" y="370" width="30" height="10" fill="#43331A" />
<rect x="350" y="370" width="20" height="10" fill="#685028" />
<rect x="370" y="370" width="10" height="10" fill="#43331A" />
<rect x="380" y="370" width="10" height="10" fill="#685028" />
<rect x="390" y="370" width="40" height="10" fill="#43331A" />
<rect x="430" y="370" width="20" height="10" fill="#685028" />
<rect x="450" y="370" width="40" height="10" fill="#43331A" />
<rect x="490" y="370" width="10" height="10" fill="#5F8761" />
<rect x="500" y="370" width="20" height="30" fill="#D7FFDC" />
<rect x="520" y="370" width="10" height="80" fill="#5F8761" />
<rect x="540" y="370" width="10" height="30" fill="#43331A" />
<rect x="630" y="370" width="10" height="210" fill="#000000" opacity="0.000000" />
<rect x="250" y="380" width="10" height="60" fill="#43331A" />
<rect x="310" y="380" width="20" height="20" fill="#D7FFDC" />
<rect x="330" y="380" width="40" height="70" fill="#43331A" />
<rect x="370" y="380" width="60" height="10" fill="#5F8761" />
<rect x="430" y="380" width="40" height="70" fill="#43331A" />
<rect x="470" y="380" width="30" height="50" fill="#D7FFDC" />
<rect x="530" y="380" width="10" height="50" fill="#5F8761" />
<rect x="260" y="390" width="10" height="40" fill="#5F8761" />
<rect x="370" y="390" width="10" height="50" fill="#43331A" />
<rect x="380" y="390" width="10" height="10" fill="#D7FFDC" />
<rect x="390" y="390" width="20" height="50" fill="#43331A" />
<rect x="410" y="390" width="10" height="10" fill="#D7FFDC" />
<rect x="420" y="390" width="10" height="50" fill="#43331A" />
<rect x="550" y="390" width="10" height="30" fill="#43331A" />
<rect x="560" y="390" width="10" height="20" fill="#000000" opacity="0.000000" />
<rect x="280" y="400" width="10" height="50" fill="#5F8761" />
<rect x="290" y="400" width="30" height="20" fill="#D7FFDC" />
<rect x="320" y="400" width="10" height="20" fill="#5F8761" />
<rect x="380" y="400" width="10" height="40" fill="#43331A" />
<rect x="410" y="400" width="10" height="30" fill="#43331A" />
<rect x="500" y="400" width="10" height="20" fill="#D7FFDC" />
<rect x="510" y="400" width="10" height="50" fill="#5F8761" />
<rect x="540" y="400" width="10" height="10" fill="#685028" />
<rect x="230" y="410" width="10" height="40" fill="#000000" opacity="0.000000" />
<rect x="240" y="410" width="10" height="50" fill="#43331A" />
<rect x="540" y="410" width="10" height="20" fill="#D7FFDC" />
<rect x="560" y="410" width="10" height="40" fill="#43331A" />
<rect x="290" y="420" width="10" height="40" fill="#5F8761" />
<rect x="300" y="420" width="30" height="10" fill="#D7FFDC" />
<rect x="500" y="420" width="10" height="40" fill="#5F8761" />
<rect x="550" y="420" width="10" height="10" fill="#685028" />
<rect x="260" y="430" width="10" height="60" fill="#D7FFDC" />
<rect x="300" y="430" width="10" height="30" fill="#5F8761" />
<rect x="310" y="430" width="20" height="10" fill="#D7FFDC" />
<rect x="410" y="430" width="10" height="200" fill="#D7FFDC" />
<rect x="470" y="430" width="20" height="10" fill="#D7FFDC" />
<rect x="490" y="430" width="10" height="30" fill="#5F8761" />
<rect x="530" y="430" width="10" height="60" fill="#D7FFDC" />
<rect x="540" y="430" width="20" height="20" fill="#5F8761" />
<rect x="570" y="430" width="10" height="40" fill="#43331A" />
<rect x="580" y="430" width="20" height="20" fill="#000000" opacity="0.000000" />
<rect x="250" y="440" width="10" height="30" fill="#D7FFDC" />
<rect x="270" y="440" width="10" height="60" fill="#D7FFDC" />
<rect x="310" y="440" width="10" height="20" fill="#5F8761" />
<rect x="320" y="440" width="10" height="130" fill="#D7FFDC" />
<rect x="370" y="440" width="40" height="90" fill="#D7FFDC" />
<rect x="420" y="440" width="10" height="90" fill="#D7FFDC" />
<rect x="470" y="440" width="10" height="130" fill="#D7FFDC" />
<rect x="480" y="440" width="10" height="20" fill="#5F8761" />
<rect x="230" y="450" width="10" height="50" fill="#43331A" />
<rect x="280" y="450" width="10" height="60" fill="#D7FFDC" />
<rect x="330" y="450" width="10" height="120" fill="#D7FFDC" />
<rect x="340" y="450" width="10" height="10" fill="#43331A" />
<rect x="350" y="450" width="20" height="220" fill="#D7FFDC" />
<rect x="430" y="450" width="40" height="90" fill="#D7FFDC" />
<rect x="510" y="450" width="20" height="50" fill="#D7FFDC" />
<rect x="540" y="450" width="10" height="30" fill="#D7FFDC" />
<rect x="550" y="450" width="10" height="10" fill="#5F8761" />
<rect x="560" y="450" width="10" height="60" fill="#D7FFDC" />
<rect x="580" y="450" width="10" height="60" fill="#43331A" />
<rect x="590" y="450" width="10" height="20" fill="#000000" opacity="0.000000" />
<rect x="240" y="460" width="10" height="50" fill="#5F8761" />
<rect x="290" y="460" width="30" height="50" fill="#D7FFDC" />
<rect x="340" y="460" width="10" height="110" fill="#D7FFDC" />
<rect x="480" y="460" width="30" height="50" fill="#D7FFDC" />
<rect x="550" y="460" width="10" height="20" fill="#D7FFDC" />
<rect x="250" y="470" width="10" height="20" fill="#5F8761" />
<rect x="570" y="470" width="10" height="60" fill="#5F8761" />
<rect x="590" y="470" width="10" height="10" fill="#D7FFDC" />
<rect x="210" y="480" width="10" height="320" fill="#000000" opacity="0.000000" />
<rect x="220" y="480" width="10" height="10" fill="#685028" />
<rect x="540" y="480" width="10" height="10" fill="#685028" />
<rect x="550" y="480" width="10" height="10" fill="#5F8761" />
<rect x="590" y="480" width="10" height="10" fill="#685028" />
<rect x="220" y="490" width="10" height="60" fill="#43331A" />
<rect x="250" y="490" width="10" height="20" fill="#43331A" />
<rect x="260" y="490" width="10" height="10" fill="#5F8761" />
<rect x="530" y="490" width="10" height="30" fill="#5F8761" />
<rect x="540" y="490" width="10" height="40" fill="#43331A" />
<rect x="550" y="490" width="10" height="20" fill="#685028" />
<rect x="590" y="490" width="10" height="60" fill="#43331A" />
<rect x="230" y="500" width="10" height="20" fill="#685028" />
<rect x="260" y="500" width="10" height="10" fill="#685028" />
<rect x="270" y="500" width="10" height="30" fill="#5F8761" />
<rect x="510" y="500" width="10" height="10" fill="#D7FFDC" />
<rect x="520" y="500" width="10" height="40" fill="#5F8761" />
<rect x="240" y="510" width="10" height="30" fill="#D7FFDC" />
<rect x="250" y="510" width="10" height="10" fill="#5F8761" />
<rect x="260" y="510" width="10" height="40" fill="#43331A" />
<rect x="280" y="510" width="20" height="30" fill="#5F8761" />
<rect x="300" y="510" width="20" height="10" fill="#D7FFDC" />
<rect x="480" y="510" width="20" height="10" fill="#D7FFDC" />
<rect x="500" y="510" width="20" height="30" fill="#5F8761" />
<rect x="550" y="510" width="10" height="50" fill="#D7FFDC" />
<rect x="560" y="510" width="10" height="30" fill="#5F8761" />
<rect x="580" y="510" width="10" height="10" fill="#685028" />
<rect x="230" y="520" width="10" height="10" fill="#5F8761" />
<rect x="250" y="520" width="10" height="30" fill="#D7FFDC" />
<rect x="300" y="520" width="10" height="20" fill="#5F8761" />
<rect x="310" y="520" width="10" height="10" fill="#D7FFDC" />
<rect x="480" y="520" width="10" height="10" fill="#D7FFDC" />
<rect x="490" y="520" width="10" height="20" fill="#5F8761" />
<rect x="530" y="520" width="10" height="10" fill="#685028" />
<rect x="580" y="520" width="10" height="60" fill="#43331A" />
<rect x="230" y="530" width="10" height="50" fill="#43331A" />
<rect x="270" y="530" width="10" height="40" fill="#43331A" />
<rect x="310" y="530" width="10" height="10" fill="#5F8761" />
<rect x="370" y="530" width="10" height="10" fill="#5F8761" />
<rect x="380" y="530" width="30" height="50" fill="#D7FFDC" />
<rect x="420" y="530" width="10" height="10" fill="#5F8761" />
<rect x="480" y="530" width="10" height="10" fill="#5F8761" />
<rect x="530" y="530" width="10" height="20" fill="#43331A" />
<rect x="540" y="530" width="10" height="10" fill="#685028" />
<rect x="570" y="530" width="10" height="20" fill="#D7FFDC" />
<rect x="240" y="540" width="10" height="30" fill="#5F8761" />
<rect x="280" y="540" width="40" height="20" fill="#D7FFDC" />
<rect x="370" y="540" width="10" height="50" fill="#43331A" />
<rect x="420" y="540" width="10" height="100" fill="#43331A" />
<rect x="430" y="540" width="10" height="10" fill="#5F8761" />
<rect x="440" y="540" width="30" height="30" fill="#D7FFDC" />
<rect x="480" y="540" width="50" height="10" fill="#D7FFDC" />
<rect x="540" y="540" width="10" height="30" fill="#D7FFDC" />
<rect x="560" y="540" width="10" height="20" fill="#D7FFDC" />
<rect x="220" y="550" width="10" height="250" fill="#000000" opacity="0.000000" />
<rect x="250" y="550" width="10" height="30" fill="#5F8761" />
<rect x="260" y="550" width="10" height="10" fill="#D7FFDC" />
<rect x="430" y="550" width="10" height="10" fill="#D7FFDC" />
<rect x="480" y="550" width="40" height="10" fill="#D7FFDC" />
<rect x="520" y="550" width="10" height="10" fill="#5F8761" />
<rect x="530" y="550" width="10" height="10" fill="#685028" />
<rect x="570" y="550" width="10" height="10" fill="#5F8761" />
<rect x="590" y="550" width="10" height="10" fill="#000000" opacity="0.000000" />
<rect x="260" y="560" width="10" height="20" fill="#5F8761" />
<rect x="280" y="560" width="10" height="50" fill="#43331A" />
<rect x="290" y="560" width="20" height="30" fill="#5F8761" />
<rect x="310" y="560" width="10" height="10" fill="#D7FFDC" />
<rect x="430" y="560" width="10" height="10" fill="#5F8761" />
<rect x="480" y="560" width="20" height="10" fill="#D7FFDC" />
<rect x="500" y="560" width="20" height="10" fill="#5F8761" />
<rect x="520" y="560" width="10" height="40" fill="#43331A" />
<rect x="530" y="560" width="10" height="10" fill="#5F8761" />
<rect x="550" y="560" width="20" height="20" fill="#5F8761" />
<rect x="570" y="560" width="10" height="30" fill="#43331A" />
<rect x="590" y="560" width="10" height="20" fill="#43331A" />
<rect x="240" y="570" width="10" height="20" fill="#43331A" />
<rect x="270" y="570" width="10" height="50" fill="#D7FFDC" />
<rect x="310" y="570" width="40" height="10" fill="#5F8761" />
<rect x="430" y="570" width="30" height="90" fill="#D7FFDC" />
<rect x="460" y="570" width="50" height="20" fill="#5F8761" />
<rect x="510" y="570" width="10" height="30" fill="#685028" />
<rect x="530" y="570" width="10" height="70" fill="#D7FFDC" />
<rect x="540" y="570" width="10" height="10" fill="#5F8761" />
<rect x="600" y="570" width="30" height="10" fill="#43331A" />
<rect x="230" y="580" width="10" height="220" fill="#000000" opacity="0.000000" />
<rect x="250" y="580" width="10" height="10" fill="#685028" />
<rect x="260" y="580" width="10" height="10" fill="#D7FFDC" />
<rect x="310" y="580" width="30" height="10" fill="#5F8761" />
<rect x="340" y="580" width="10" height="110" fill="#D7FFDC" />
<rect x="380" y="580" width="10" height="30" fill="#5F8761" />
<rect x="390" y="580" width="20" height="50" fill="#D7FFDC" />
<rect x="540" y="580" width="10" height="40" fill="#D7FFDC" />
<rect x="550" y="580" width="10" height="10" fill="#5F8761" />
<rect x="560" y="580" width="10" height="60" fill="#43331A" />
<rect x="580" y="580" width="20" height="20" fill="#5F8761" />
<rect x="600" y="580" width="10" height="20" fill="#D7FFDC" />
<rect x="610" y="580" width="10" height="10" fill="#5F8761" />
<rect x="620" y="580" width="20" height="10" fill="#43331A" />
<rect x="640" y="580" width="10" height="10" fill="#685028" />
<rect x="240" y="590" width="10" height="20" fill="#000000" opacity="0.000000" />
<rect x="250" y="590" width="20" height="20" fill="#43331A" />
<rect x="290" y="590" width="10" height="90" fill="#43331A" />
<rect x="300" y="590" width="40" height="40" fill="#D7FFDC" />
<rect x="370" y="590" width="10" height="10" fill="#685028" />
<rect x="460" y="590" width="50" height="20" fill="#D7FFDC" />
<rect x="550" y="590" width="10" height="20" fill="#685028" />
<rect x="570" y="590" width="10" height="10" fill="#685028" />
<rect x="610" y="590" width="10" height="10" fill="#D7FFDC" />
<rect x="620" y="590" width="10" height="40" fill="#5F8761" />
<rect x="630" y="590" width="10" height="10" fill="#685028" />
<rect x="640" y="590" width="20" height="10" fill="#43331A" />
<rect x="370" y="600" width="10" height="20" fill="#43331A" />
<rect x="510" y="600" width="10" height="60" fill="#43331A" />
<rect x="520" y="600" width="10" height="40" fill="#D7FFDC" />
<rect x="570" y="600" width="20" height="10" fill="#5F8761" />
<rect x="590" y="600" width="10" height="10" fill="#D7FFDC" />
<rect x="600" y="600" width="20" height="30" fill="#5F8761" />
<rect x="630" y="600" width="20" height="10" fill="#5F8761" />
<rect x="650" y="600" width="20" height="10" fill="#43331A" />
<rect x="670" y="600" width="130" height="10" fill="#000000" opacity="0.000000" />
<rect x="240" y="610" width="10" height="10" fill="#685028" />
<rect x="250" y="610" width="10" height="40" fill="#43331A" />
<rect x="260" y="610" width="10" height="20" fill="#D7FFDC" />
<rect x="280" y="610" width="10" height="30" fill="#D7FFDC" />
<rect x="380" y="610" width="10" height="80" fill="#43331A" />
<rect x="460" y="610" width="40" height="60" fill="#D7FFDC" />
<rect x="500" y="610" width="10" height="10" fill="#5F8761" />
<rect x="550" y="610" width="10" height="30" fill="#D7FFDC" />
<rect x="570" y="610" width="10" height="10" fill="#43331A" />
<rect x="580" y="610" width="10" height="10" fill="#685028" />
<rect x="590" y="610" width="10" height="10" fill="#5F8761" />
<rect x="630" y="610" width="10" height="10" fill="#5F8761" />
<rect x="640" y="610" width="20" height="30" fill="#D7FFDC" />
<rect x="660" y="610" width="20" height="10" fill="#43331A" />
<rect x="680" y="610" width="120" height="20" fill="#000000" opacity="0.000000" />
<rect x="240" y="620" width="10" height="10" fill="#43331A" />
<rect x="270" y="620" width="10" height="20" fill="#5F8761" />
<rect x="370" y="620" width="10" height="10" fill="#685028" />
<rect x="500" y="620" width="10" height="70" fill="#43331A" />
<rect x="540" y="620" width="10" height="20" fill="#5F8761" />
<rect x="570" y="620" width="10" height="70" fill="#000000" opacity="0.000000" />
<rect x="580" y="620" width="20" height="10" fill="#43331A" />
<rect x="630" y="620" width="10" height="30" fill="#D7FFDC" />
<rect x="660" y="620" width="10" height="20" fill="#D7FFDC" />
<rect x="670" y="620" width="10" height="30" fill="#43331A" />
<rect x="240" y="630" width="10" height="170" fill="#000000" opacity="0.000000" />
<rect x="260" y="630" width="10" height="10" fill="#5F8761" />
<rect x="300" y="630" width="10" height="40" fill="#5F8761" />
<rect x="310" y="630" width="30" height="30" fill="#D7FFDC" />
<rect x="370" y="630" width="10" height="10" fill="#5F8761" />
<rect x="390" y="630" width="10" height="10" fill="#5F8761" />
<rect x="400" y="630" width="10" height="10" fill="#D7FFDC" />
<rect x="410" y="630" width="10" height="50" fill="#43331A" />
<rect x="580" y="630" width="10" height="60" fill="#000000" opacity="0.000000" />
<rect x="590" y="630" width="10" height="10" fill="#43331A" />
<rect x="600" y="630" width="10" height="10" fill="#685028" />
<rect x="610" y="630" width="10" height="10" fill="#5F8761" />
<rect x="620" y="630" width="10" height="20" fill="#D7FFDC" />
<rect x="680" y="630" width="10" height="70" fill="#43331A" />
<rect x="690" y="630" width="110" height="170" fill="#000000" opacity="0.000000" />
<rect x="260" y="640" width="30" height="10" fill="#43331A" />
<rect x="370" y="640" width="10" height="30" fill="#D7FFDC" />
<rect x="390" y="640" width="20" height="10" fill="#43331A" />
<rect x="420" y="640" width="10" height="30" fill="#5F8761" />
<rect x="520" y="640" width="40" height="10" fill="#43331A" />
<rect x="560" y="640" width="10" height="70" fill="#000000" opacity="0.000000" />
<rect x="590" y="640" width="10" height="40" fill="#000000" opacity="0.000000" />
<rect x="600" y="640" width="20" height="10" fill="#43331A" />
<rect x="640" y="640" width="10" height="10" fill="#D7FFDC" />
<rect x="650" y="640" width="20" height="40" fill="#5F8761" />
<rect x="250" y="650" width="20" height="150" fill="#000000" opacity="0.000000" />
<rect x="270" y="650" width="10" height="10" fill="#685028" />
<rect x="280" y="650" width="10" height="10" fill="#43331A" />
<rect x="390" y="650" width="20" height="150" fill="#000000" opacity="0.000000" />
<rect x="520" y="650" width="20" height="10" fill="#43331A" />
<rect x="540" y="650" width="10" height="10" fill="#685028" />
<rect x="550" y="650" width="10" height="150" fill="#000000" opacity="0.000000" />
<rect x="600" y="650" width="10" height="20" fill="#000000" opacity="0.000000" />
<rect x="610" y="650" width="10" height="30" fill="#43331A" />
<rect x="620" y="650" width="30" height="20" fill="#5F8761" />
<rect x="670" y="650" width="10" height="30" fill="#5F8761" />
<rect x="270" y="660" width="20" height="140" fill="#000000" opacity="0.000000" />
<rect x="310" y="660" width="10" height="20" fill="#D7FFDC" />
<rect x="320" y="660" width="10" height="20" fill="#5F8761" />
<rect x="330" y="660" width="10" height="20" fill="#D7FFDC" />
<rect x="430" y="660" width="10" height="20" fill="#D7FFDC" />
<rect x="440" y="660" width="10" height="30" fill="#5F8761" />
<rect x="450" y="660" width="10" height="30" fill="#D7FFDC" />
<rect x="510" y="660" width="40" height="140" fill="#000000" opacity="0.000000" />
<rect x="300" y="670" width="10" height="20" fill="#43331A" />
<rect x="350" y="670" width="30" height="10" fill="#5F8761" />
<rect x="420" y="670" width="10" height="10" fill="#685028" />
<rect x="460" y="670" width="10" height="20" fill="#D7FFDC" />
<rect x="470" y="670" width="10" height="20" fill="#5F8761" />
<rect x="480" y="670" width="10" height="10" fill="#D7FFDC" />
<rect x="490" y="670" width="10" height="10" fill="#5F8761" />
<rect x="600" y="670" width="10" height="20" fill="#43331A" />
<rect x="620" y="670" width="10" height="40" fill="#D7FFDC" />
<rect x="630" y="670" width="20" height="10" fill="#5F8761" />
<rect x="290" y="680" width="10" height="120" fill="#000000" opacity="0.000000" />
<rect x="310" y="680" width="20" height="20" fill="#43331A" />
<rect x="330" y="680" width="10" height="10" fill="#5F8761" />
<rect x="350" y="680" width="20" height="10" fill="#5F8761" />
<rect x="370" y="680" width="10" height="20" fill="#43331A" />
<rect x="410" y="680" width="10" height="120" fill="#000000" opacity="0.000000" />
<rect x="420" y="680" width="10" height="10" fill="#43331A" />
<rect x="430" y="680" width="10" height="10" fill="#5F8761" />
<rect x="480" y="680" width="10" height="10" fill="#5F8761" />
<rect x="490" y="680" width="10" height="20" fill="#43331A" />
<rect x="590" y="680" width="10" height="20" fill="#43331A" />
<rect x="610" y="680" width="10" height="20" fill="#D7FFDC" />
<rect x="630" y="680" width="30" height="40" fill="#D7FFDC" />
<rect x="660" y="680" width="10" height="10" fill="#5F8761" />
<rect x="670" y="680" width="10" height="40" fill="#43331A" />
<rect x="300" y="690" width="10" height="110" fill="#000000" opacity="0.000000" />
<rect x="330" y="690" width="40" height="10" fill="#43331A" />
<rect x="380" y="690" width="10" height="110" fill="#000000" opacity="0.000000" />
<rect x="420" y="690" width="10" height="10" fill="#685028" />
<rect x="430" y="690" width="60" height="10" fill="#43331A" />
<rect x="500" y="690" width="10" height="110" fill="#000000" opacity="0.000000" />
<rect x="570" y="690" width="10" height="10" fill="#5F8761" />
<rect x="580" y="690" width="10" height="20" fill="#43331A" />
<rect x="600" y="690" width="10" height="70" fill="#5F8761" />
<rect x="660" y="690" width="10" height="20" fill="#D7FFDC" />
<rect x="310" y="700" width="70" height="100" fill="#000000" opacity="0.000000" />
<rect x="420" y="700" width="80" height="100" fill="#000000" opacity="0.000000" />
<rect x="570" y="700" width="10" height="10" fill="#43331A" />
<rect x="590" y="700" width="10" height="60" fill="#5F8761" />
<rect x="610" y="700" width="10" height="50" fill="#5F8761" />
<rect x="680" y="700" width="10" height="100" fill="#000000" opacity="0.000000" />
<rect x="560" y="710" width="10" height="50" fill="#43331A" />
<rect x="570" y="710" width="10" height="10" fill="#685028" />
<rect x="580" y="710" width="10" height="40" fill="#5F8761" />
<rect x="620" y="710" width="10" height="40" fill="#5F8761" />
<rect x="660" y="710" width="10" height="20" fill="#43331A" />
<rect x="570" y="720" width="10" height="30" fill="#5F8761" />
<rect x="630" y="720" width="10" height="20" fill="#5F8761" />
<rect x="640" y="720" width="10" height="10" fill="#D7FFDC" />
<rect x="650" y="720" width="10" height="20" fill="#43331A" />
<rect x="670" y="720" width="10" height="80" fill="#000000" opacity="0.000000" />
<rect x="640" y="730" width="10" height="20" fill="#43331A" />
<rect x="660" y="730" width="10" height="70" fill="#000000" opacity="0.000000" />
<rect x="630" y="740" width="10" height="20" fill="#43331A" />
<rect x="650" y="740" width="10" height="10" fill="#685028" />
<rect x="570" y="750" width="10" height="10" fill="#43331A" />
<rect x="580" y="750" width="10" height="10" fill="#685028" />
<rect x="610" y="750" width="20" height="10" fill="#43331A" />
<rect x="640" y="750" width="20" height="50" fill="#000000" opacity="0.000000" />
<rect x="560" y="760" width="10" height="40" fill="#000000" opacity="0.000000" />
<rect x="570" y="760" width="10" height="10" fill="#685028" />
<rect x="580" y="760" width="40" height="10" fill="#43331A" />
<rect x="620" y="760" width="20" height="40" fill="#000000" opacity="0.000000" />
<rect x="570" y="770" width="50" height="30" fill="#000000" opacity="0.000000" />
</svg>